<?xml version="1.0" standalone="no"?>
<!DOCTYPE svg PUBLIC "-//W3C//DTD SVG 20010904//EN"
 "http://www.w3.org/TR/2001/REC-SVG-20010904/DTD/svg10.dtd">
<svg version="1.0" xmlns="http://www.w3.org/2000/svg"
 width="512.000000pt" height="512.000000pt" viewBox="0 0 512.000000 512.000000"
 preserveAspectRatio="xMidYMid meet">
<metadata>
Created by potrace 1.14, written by Peter Selinger 2001-2017
</metadata>
<g transform="translate(0.000000,512.000000) scale(0.100000,-0.100000)"
fill="#000000" stroke="none">
<path d="M3200 5040 l0 -80 340 0 c187 0 340 -1 340 -3 0 -2 -632 -635 -1405
-1408 -773 -772 -1405 -1407 -1405 -1411 0 -10 97 -108 107 -108 4 0 640 633
1413 1405 l1405 1406 3 -341 2 -340 80 0 80 0 0 439 0 439 -39 41 -39 41 -441
0 -441 0 0 -80z"/>
<path d="M3280 1880 l0 -1880 560 0 560 0 0 1880 0 1880 -560 0 -560 0 0
-1880z m960 0 l0 -1720 -400 0 -400 0 0 1720 0 1720 400 0 400 0 0 -1720z"/>
<path d="M2000 1320 l0 -1320 560 0 560 0 0 1320 0 1320 -560 0 -560 0 0
-1320z m960 0 l0 -1160 -400 0 -400 0 0 1160 0 1160 400 0 400 0 0 -1160z"/>
<path d="M720 800 l0 -800 560 0 560 0 0 800 0 800 -560 0 -560 0 0 -800z
m960 0 l0 -640 -400 0 -400 0 0 640 0 640 400 0 400 0 0 -640z"/>
</g>
</svg>
